<?xml version="1.0" standalone="no"?>
<!DOCTYPE svg PUBLIC "-//W3C//DTD SVG 20010904//EN"
 "http://www.w3.org/TR/2001/REC-SVG-20010904/DTD/svg10.dtd">
<svg version="1.0" xmlns="http://www.w3.org/2000/svg"
 width="179.000000pt" height="179.000000pt" viewBox="0 0 179.000000 179.000000"
 preserveAspectRatio="xMidYMid meet">

<g transform="translate(0.000000,179.000000) scale(0.100000,-0.100000)"
fill="#000000" stroke="none">
<path d="M731 1695 c-117 -27 -238 -73 -260 -99 -10 -11 -9 -21 3 -44 l16 -30
-56 -31 c-30 -18 -57 -38 -60 -46 -6 -15 64 -142 83 -149 7 -3 44 11 83 30 39
19 84 37 100 41 33 6 39 23 14 44 -11 9 -17 10 -22 1 -5 -8 -19 -6 -47 7 -34
15 -45 29 -75 90 -34 71 -34 73 -15 87 26 19 114 52 205 76 94 24 265 27 365
5 73 -16 200 -62 229 -82 15 -12 14 -19 -19 -88 -33 -70 -39 -76 -80 -90 -43
-15 -44 -15 -32 4 17 27 -5 44 -84 63 -161 39 -498 2 -465 -52 5 -8 13 -5 25
7 57 57 401 63 505 8 19 -9 19 -10 -2 -27 -31 -26 -27 -39 16 -56 20 -9 66
-29 101 -45 75 -35 76 -34 129 61 37 66 33 77 -38 110 -43 20 -50 27 -45 45
21 65 21 63 -48 95 -114 52 -201 71 -337 76 -87 2 -144 -1 -189 -11z m-210
-253 c13 -23 29 -33 67 -42 l50 -13 -76 -34 c-42 -19 -82 -37 -89 -40 -15 -6
-86 102 -81 124 2 8 23 26 48 39 49 26 47 27 81 -34z m830 31 c27 -14 49 -30
49 -34 0 -4 -16 -35 -35 -68 -34 -57 -56 -74 -69 -52 -4 5 -38 22 -77 37 l-71
28 52 15 c46 12 54 19 73 58 11 23 23 43 25 43 2 0 26 -12 53 -27z"/>
<path d="M438 1457 l-37 -22 31 -50 c17 -27 32 -51 33 -53 1 -2 29 9 61 24
l59 27 -32 10 c-24 7 -38 21 -50 48 -10 21 -20 39 -23 39 -3 0 -22 -10 -42
-23z m46 -39 c21 -30 20 -48 -2 -48 -20 0 -46 45 -37 61 10 15 23 10 39 -13z"/>
<path d="M462 1405 c6 -14 15 -25 20 -25 5 0 1 11 -8 25 -9 14 -18 25 -20 25
-2 0 2 -11 8 -25z"/>
<path d="M1287 1444 c-11 -21 -29 -40 -49 -48 l-32 -14 53 -26 c28 -15 56 -24
60 -21 9 5 61 89 61 98 0 4 -67 47 -74 47 -1 0 -10 -16 -19 -36z m49 -19 c6
-19 -33 -58 -50 -52 -16 6 -16 9 1 37 17 29 43 37 49 15z"/>
<path d="M1301 1403 c-10 -26 -10 -27 4 -9 8 11 15 23 15 28 0 15 -7 8 -19
-19z"/>
<path d="M767 1670 c-96 -17 -267 -78 -267 -94 0 -2 13 -33 29 -69 33 -73 52
-87 74 -53 36 55 288 84 447 52 94 -19 137 -38 142 -62 5 -28 44 14 72 79 l25
58 -57 26 c-130 57 -340 86 -465 63z m132 -95 c-1 -11 -3 -14 -6 -7 -2 6 -9
10 -14 6 -11 -6 -11 2 -2 35 6 23 7 23 14 5 4 -10 8 -28 8 -39z m32 41 c5 3 9
-10 8 -28 0 -18 -3 -27 -6 -20 -2 6 -9 10 -14 6 -5 -3 -9 10 -8 28 0 18 3 27
6 20 2 -6 9 -10 14 -6z m-134 -26 c1 -17 -2 -30 -7 -30 -6 0 -10 6 -10 14 0 8
-3 21 -6 30 -4 10 -1 16 7 16 8 0 15 -12 16 -30z m36 23 c-10 -3 -10 -9 -1
-23 15 -23 3 -39 -15 -20 -9 10 -9 11 1 6 14 -8 17 10 2 19 -16 10 -11 25 8
24 9 0 12 -3 5 -6z m151 -1 c3 -5 2 -18 -1 -30 -7 -29 -33 -28 -32 1 0 21 1
21 10 2 8 -17 9 -16 6 8 -4 26 6 37 17 19z m59 -9 c-5 -2 -8 -15 -5 -28 4 -25
-11 -35 -23 -15 -3 6 -1 10 5 10 6 0 8 5 5 10 -10 17 3 42 17 34 8 -5 8 -9 1
-11z m-306 -25 c-3 -7 -5 -2 -5 12 0 14 2 19 5 13 2 -7 2 -19 0 -25z m23 -22
c-14 -14 -19 -5 -13 28 6 30 6 30 15 6 5 -14 5 -27 -2 -34z m321 35 c7 12 9
12 9 -1 0 -8 -5 -22 -10 -30 -9 -13 -10 -13 -10 0 0 13 -1 13 -10 0 -11 -18
-13 -5 -3 30 6 21 8 22 11 6 3 -15 6 -16 13 -5z m-361 -2 c0 -5 -4 -7 -10 -4
-5 3 -10 -1 -10 -9 0 -9 8 -16 17 -16 14 0 14 -3 5 -12 -10 -10 -15 -10 -22 2
-15 23 -12 50 5 50 8 0 15 -5 15 -11z m402 -31 c-3 -18 -7 -27 -9 -20 -3 6 -9
10 -14 6 -12 -7 -11 0 2 30 16 34 27 25 21 -16z m-440 7 c3 -13 1 -22 -3 -19
-5 3 -9 -1 -10 -8 -1 -15 -17 21 -18 40 -2 23 27 12 31 -13z m477 4 c1 8 4 12
7 9 7 -8 -14 -48 -25 -48 -5 0 -8 8 -6 18 2 9 4 24 5 32 1 10 4 9 10 -5 5 -12
9 -14 9 -6z m-510 -36 c1 -7 -7 -13 -17 -13 -10 0 -22 -3 -26 -7 -22 -22 -56
-6 -56 27 0 13 1 13 10 0 8 -12 10 -12 11 5 0 16 3 14 14 -10 l14 -30 1 35 0
35 19 -24 19 -25 -4 30 c-4 24 -3 26 5 9 5 -11 10 -26 10 -32z m546 21 c-9 -9
-14 -23 -11 -30 5 -14 -6 -19 -17 -8 -9 10 15 54 30 54 12 0 11 -3 -2 -16z
m45 -5 c0 -5 -5 -7 -10 -4 -7 4 -9 -2 -4 -19 5 -20 2 -26 -10 -26 -19 0 -19 1
-6 34 9 26 30 36 30 15z"/>
<path d="M250 1425 c-1 -5 -2 -13 -2 -16 1 -3 -17 -14 -39 -23 -33 -15 -69
-57 -69 -81 0 -3 50 -5 110 -5 88 0 110 3 110 14 0 22 -47 73 -74 80 -14 3
-27 14 -29 24 -3 9 -6 13 -7 7z m71 -72 c9 -10 19 -25 23 -33 4 -8 -1 -4 -12
9 -10 13 -30 32 -43 43 -18 15 -19 17 -4 10 11 -6 27 -18 36 -29z"/>
<path d="M812 1410 c-32 -15 -48 -30 -63 -62 -19 -41 -22 -19 -4 26 7 16 6 17
-13 7 -30 -16 -51 -61 -41 -86 13 -34 9 -41 -10 -16 l-19 24 -7 -33 c-11 -49
4 -180 20 -180 7 0 16 14 19 30 3 17 9 43 12 59 9 48 25 54 85 37 62 -19 152
-21 216 -4 41 10 47 9 59 -7 8 -11 14 -33 14 -49 1 -88 31 -101 49 -22 10 46
10 59 -2 83 -22 42 -52 65 -104 79 -45 12 -46 13 -15 13 44 1 67 -12 128 -71
29 -28 57 -49 63 -47 15 6 -94 161 -125 177 -41 22 -115 11 -161 -23 -31 -24
-34 -25 -18 -6 23 26 85 61 112 62 34 1 -19 18 -60 18 -53 1 -91 -21 -122 -71
-18 -29 -24 -35 -20 -18 4 14 20 42 36 63 34 42 31 44 -29 17z"/>
<path d="M1530 1415 c0 -8 -11 -17 -25 -21 -28 -7 -75 -57 -75 -80 0 -11 22
-14 110 -14 61 0 110 3 110 8 0 21 -42 70 -69 82 -17 7 -31 19 -31 26 0 8 -4
14 -10 14 -5 0 -10 -7 -10 -15z m90 -76 c15 -28 5 -23 -15 7 -9 15 -12 23 -6
20 6 -4 16 -16 21 -27z"/>
<path d="M198 1283 c34 -2 88 -2 120 0 31 2 3 3 -63 3 -66 0 -92 -1 -57 -3z"/>
<path d="M1478 1283 c34 -2 90 -2 125 0 34 2 6 3 -63 3 -69 0 -97 -1 -62 -3z"/>
<path d="M130 1260 c0 -6 48 -10 125 -10 77 0 125 4 125 10 0 6 -48 10 -125
10 -77 0 -125 -4 -125 -10z"/>
<path d="M1410 1260 c0 -6 48 -10 124 -10 73 0 127 4 131 10 4 6 -40 10 -124
10 -81 0 -131 -4 -131 -10z"/>
<path d="M134 980 c0 -146 2 -205 3 -132 2 72 2 192 0 265 -1 72 -3 13 -3
-133z"/>
<path d="M215 1219 c-16 -10 -38 -19 -47 -19 -12 0 -18 -8 -18 -25 0 -37 32
-32 94 12 28 20 67 40 86 44 29 6 25 7 -25 7 -43 0 -69 -5 -90 -19z"/>
<path d="M369 1138 c-1 -57 -4 -93 -6 -80 -7 34 -46 28 -110 -18 -31 -22 -67
-40 -80 -40 -18 0 -23 -5 -23 -25 0 -38 37 -32 103 15 68 49 117 55 117 15 0
-22 -4 -25 -33 -25 -21 0 -45 -10 -67 -28 -45 -37 -74 -52 -100 -52 -17 0 -21
-5 -18 -27 4 -39 35 -34 105 17 31 22 67 40 81 40 19 0 23 4 19 20 -3 11 -1
20 3 20 5 0 11 -19 13 -42 2 -24 4 37 5 135 1 97 0 177 -3 177 -3 0 -6 -46 -6
-102z"/>
<path d="M1411 1224 c0 -11 3 -14 6 -6 3 7 2 16 -1 19 -3 4 -6 -2 -5 -13z"/>
<path d="M1505 1219 c-16 -10 -40 -19 -51 -19 -16 0 -21 -6 -21 -25 0 -37 34
-33 98 12 30 20 67 40 84 44 24 6 19 7 -25 7 -38 0 -65 -6 -85 -19z"/>
<path d="M1654 980 c0 -146 2 -205 3 -132 2 72 2 192 0 265 -1 72 -3 13 -3
-133z"/>
<path d="M312 1180 c-12 -5 -43 -25 -69 -45 -25 -19 -56 -35 -69 -35 -19 0
-24 -5 -24 -25 0 -38 37 -32 103 15 30 22 67 40 81 40 26 0 32 13 20 44 -7 18
-10 18 -42 6z"/>
<path d="M1605 1181 c-11 -5 -44 -25 -74 -45 -29 -20 -59 -36 -67 -36 -12 0
-34 -29 -34 -44 0 -18 56 -1 108 34 33 22 69 40 81 40 17 0 21 6 21 30 0 32
-3 34 -35 21z"/>
<path d="M1410 1155 c0 -14 4 -25 9 -25 4 0 6 11 3 25 -2 14 -6 25 -8 25 -2 0
-4 -11 -4 -25z"/>
<path d="M400 1131 c0 -6 51 -48 113 -94 143 -106 137 -102 137 -78 0 16 -29
40 -112 94 -146 94 -138 90 -138 78z"/>
<path d="M1353 1067 c-72 -42 -87 -57 -57 -57 19 0 134 77 134 90 0 13 6 15
-77 -33z"/>
<path d="M1124 1073 c-3 -16 -8 -34 -10 -42 -2 -7 15 -30 38 -50 24 -20 72
-67 108 -106 129 -139 140 -146 184 -129 22 8 20 52 -3 90 -10 17 -44 55 -76
85 -60 57 -215 179 -227 179 -4 0 -10 -12 -14 -27z m296 -283 c0 -5 -4 -10
-10 -10 -5 0 -10 5 -10 10 0 6 5 10 10 10 6 0 10 -4 10 -10z"/>
<path d="M1603 1080 c-11 -5 -43 -25 -71 -44 -27 -20 -60 -36 -74 -36 -17 0
-24 -5 -23 -18 3 -50 33 -47 112 13 25 19 56 35 69 35 19 0 24 5 24 24 0 30
-8 36 -37 26z"/>
<path d="M673 1063 c-3 -8 -1 -24 5 -36 6 -12 14 -32 17 -45 12 -41 91 -56
135 -25 22 16 23 16 17 0 -18 -45 -19 -51 -2 -29 9 12 15 28 13 34 -3 7 1 28
8 47 16 47 44 48 56 4 13 -48 54 -76 102 -68 22 3 45 13 52 23 11 14 13 14 14
2 0 -36 -24 -94 -48 -117 -22 -20 -24 -26 -12 -34 8 -5 25 -7 38 -4 30 7 28
-9 -4 -34 -18 -14 -34 -19 -51 -15 -15 4 -30 0 -43 -11 -25 -23 -133 -24 -158
-2 -11 10 -27 13 -45 10 -32 -6 -67 19 -67 49 0 21 11 23 28 6 9 -10 16 -9 28
4 15 15 15 17 -5 27 -30 17 -51 53 -65 113 l-13 53 -8 -70 c-14 -118 -6 -194
24 -253 26 -50 107 -136 121 -127 5 3 14 -3 19 -13 18 -34 63 -46 105 -28 20
8 36 20 36 25 0 6 6 11 13 11 21 0 74 58 99 108 20 41 23 66 26 191 3 109 1
146 -9 152 -10 6 -10 11 1 24 29 35 -6 42 -220 42 -168 1 -202 -2 -207 -14z"/>
<path d="M1411 1015 c1 -43 2 -46 9 -22 5 16 5 38 0 50 -7 17 -9 10 -9 -28z"/>
<path d="M637 1038 c-17 -13 -17 -15 -3 -27 20 -17 29 -10 24 19 -3 19 -5 19
-21 8z"/>
<path d="M435 914 c-148 -92 -152 -95 -127 -118 11 -9 35 -19 53 -22 29 -5 51
5 157 71 l123 77 -32 24 c-18 13 -36 24 -39 24 -12 0 -225 -142 -237 -158 -13
-16 -30 -11 -19 7 4 5 58 42 121 82 64 39 118 75 121 80 8 13 9 14 -121 -67z"/>
<path d="M1540 940 c-32 -24 -66 -40 -82 -40 -31 0 -34 -7 -14 -32 19 -26 31
-23 98 22 33 22 69 40 79 40 14 0 19 7 19 25 0 37 -35 32 -100 -15z"/>
<path d="M1411 944 c0 -11 3 -14 6 -6 3 7 2 16 -1 19 -3 4 -6 -2 -5 -13z"/>
<path d="M1133 943 c-7 -2 -13 -16 -13 -29 l0 -25 30 18 c41 24 26 54 -17 36z"/>
<path d="M257 840 c-30 -22 -67 -40 -81 -40 -22 0 -26 -4 -26 -30 0 -22 5 -30
18 -30 19 0 119 66 115 75 -8 14 0 25 30 44 19 12 25 21 16 21 -9 0 -41 -18
-72 -40z"/>
<path d="M804 849 c-40 -43 -62 -53 -80 -38 -17 14 -18 5 -4 -22 15 -26 43
-24 90 7 56 37 108 40 151 9 34 -26 73 -32 99 -15 12 8 11 10 -6 10 -12 0 -43
19 -69 42 -43 38 -49 41 -76 31 -17 -7 -31 -7 -35 -2 -11 18 -41 8 -70 -22z"/>
<path d="M1540 840 c-31 -23 -58 -51 -62 -65 -3 -14 -4 -25 -1 -25 3 0 32 18
65 40 33 22 69 40 79 40 14 0 19 7 19 25 0 37 -35 32 -100 -15z"/>
<path d="M868 800 c13 -6 31 -6 45 0 18 7 14 9 -23 9 -37 0 -41 -2 -22 -9z"/>
<path d="M494 770 c-11 -4 -33 -22 -47 -40 -33 -39 -35 -85 -5 -117 21 -23 21
-23 2 -38 -34 -26 -66 -30 -80 -10 -17 23 -32 11 -18 -13 17 -27 46 -25 142 8
97 34 197 89 191 105 -2 6 -10 9 -16 9 -8 -1 -13 10 -13 25 -1 63 -83 101
-156 71z m117 -39 c20 -16 22 -23 14 -47 -22 -60 -124 -96 -167 -57 -24 21
-23 44 3 77 38 48 109 61 150 27z"/>
<path d="M878 773 c7 -3 16 -2 19 1 4 3 -2 6 -13 5 -11 0 -14 -3 -6 -6z"/>
<path d="M1553 745 c-38 -25 -63 -35 -92 -35 -22 0 -43 -4 -46 -10 -4 -6 40
-10 125 -10 85 0 129 4 125 10 -3 6 -39 11 -78 11 -75 1 -74 4 6 14 41 5 47 9
47 31 0 34 -25 31 -87 -11z"/>
<path d="M260 740 c-28 -23 -45 -30 -82 -30 -26 0 -50 -4 -53 -10 -4 -6 40
-10 124 -10 81 0 131 4 131 10 0 6 -21 10 -47 11 -42 0 -45 1 -23 10 13 6 35
7 47 4 18 -4 23 -1 22 12 0 12 -2 13 -6 5 -4 -10 -7 -10 -17 2 -22 29 -59 28
-96 -4z m7 -26 c-3 -3 -12 -4 -19 -1 -8 3 -5 6 6 6 11 1 17 -2 13 -5z"/>
<path d="M1182 735 c-20 -16 -32 -36 -32 -51 0 -26 -10 -30 -28 -12 -8 8 -15
9 -22 2 -7 -7 11 -25 57 -57 89 -61 117 -71 159 -57 70 23 85 98 31 156 -28
30 -42 37 -83 41 -43 5 -54 2 -82 -22z m150 -44 c48 -54 29 -101 -41 -101 -78
0 -144 78 -105 122 16 17 28 19 68 15 40 -3 55 -11 78 -36z"/>
<path d="M198 673 c34 -2 88 -2 120 0 31 2 3 3 -63 3 -66 0 -92 -1 -57 -3z"/>
<path d="M1478 673 c34 -2 90 -2 125 0 34 2 6 3 -63 3 -69 0 -97 -1 -62 -3z"/>
<path d="M147 654 c-13 -14 26 -66 62 -82 21 -10 36 -23 33 -30 -2 -6 1 -12 7
-12 6 0 11 7 11 15 0 8 7 15 15 15 22 0 85 59 85 80 0 16 -11 18 -103 19 -57
1 -106 -2 -110 -5z m187 -38 c-4 -9 -21 -24 -38 -33 l-31 -16 35 34 c39 38 43
40 34 15z"/>
<path d="M1430 650 c0 -27 27 -62 61 -77 21 -10 39 -24 39 -30 0 -18 20 -16
20 2 0 8 7 15 15 15 20 0 72 50 80 78 6 22 6 22 -104 22 -64 0 -111 -4 -111
-10z m188 -32 c-8 -12 -25 -29 -39 -37 -17 -11 -14 -5 11 21 40 42 48 47 28
16z"/>
<path d="M284 495 c-19 -13 -19 -14 0 -28 15 -11 24 -12 41 -3 32 17 1108 14
1129 -3 11 -10 19 -9 35 1 12 7 21 16 21 20 0 14 -36 27 -51 17 -19 -12 -1115
-12 -1138 1 -13 6 -24 5 -37 -5z"/>
<path d="M355 442 c-8 -9 -5 -136 4 -150 5 -8 22 -12 42 -10 l34 3 -1 68 c0
37 -5 72 -11 78 -12 12 -59 19 -68 11z m42 -54 c-3 -7 -5 -2 -5 12 0 14 2 19
5 13 2 -7 2 -19 0 -25z m13 -47 c0 -6 -4 -13 -10 -16 -5 -3 -10 1 -10 9 0 9 5
16 10 16 6 0 10 -4 10 -9z"/>
<path d="M680 440 c-7 -4 -10 -34 -8 -81 3 -73 3 -74 31 -77 46 -5 58 12 53
79 -3 32 -7 63 -10 68 -8 12 -52 20 -66 11z m37 -52 c-3 -8 -6 -5 -6 6 -1 11
2 17 5 13 3 -3 4 -12 1 -19z m13 -47 c0 -6 -4 -13 -10 -16 -5 -3 -10 1 -10 9
0 9 5 16 10 16 6 0 10 -4 10 -9z"/>
<path d="M885 440 c-9 -14 -9 -136 0 -150 13 -22 32 -10 28 18 l-4 27 13 -25
c7 -14 20 -26 29 -28 13 -2 14 8 11 65 -2 37 -9 73 -16 79 -18 18 -54 26 -61
14z m45 -44 c0 -8 -4 -18 -10 -21 -5 -3 -10 3 -10 14 0 12 5 21 10 21 6 0 10
-6 10 -14z"/>
<path d="M1042 438 c-19 -19 -14 -44 14 -78 25 -29 27 -57 2 -32 -16 16 -28
15 -28 -1 0 -18 33 -47 53 -47 19 0 36 29 29 50 -2 8 -15 26 -28 40 -15 16
-20 30 -15 39 6 9 11 10 15 2 4 -6 14 -11 22 -11 12 0 12 4 -2 25 -18 27 -43
32 -62 13z"/>
<path d="M1139 433 c-5 -88 -5 -111 2 -130 12 -33 29 -28 29 7 0 17 5 30 10
30 6 0 10 -11 10 -24 0 -25 16 -43 27 -32 8 8 6 120 -2 146 -9 27 -25 25 -25
-2 0 -13 -5 -30 -10 -38 -8 -12 -10 -11 -10 7 0 44 -29 77 -31 36z"/>
<path d="M1267 437 c-19 -13 -26 -84 -13 -125 8 -24 52 -40 67 -25 14 14 29
72 19 78 -4 3 -6 13 -4 23 5 16 -28 62 -44 62 -5 0 -16 -6 -25 -13z m33 -67
c0 -27 -3 -50 -7 -50 -5 0 -8 23 -8 50 0 28 3 50 8 50 4 0 7 -22 7 -50z"/>
<path d="M463 403 c-15 -64 -11 -117 10 -121 12 -2 17 3 18 20 0 15 3 18 6 8
12 -31 58 -43 49 -12 -3 9 -8 35 -12 57 -3 22 -7 45 -8 50 -3 21 -18 35 -35
35 -13 0 -21 -11 -28 -37z"/>
<path d="M559 403 c-7 -64 4 -117 24 -121 13 -3 17 4 18 25 1 21 3 23 6 8 6
-22 21 -35 41 -35 9 0 11 7 6 23 -4 12 -7 40 -6 61 2 56 -12 76 -52 76 -32 0
-34 -2 -37 -37z m48 -20 c-3 -10 -5 -4 -5 12 0 17 2 24 5 18 2 -7 2 -21 0 -30z"/>
<path d="M778 405 c-2 -20 -2 -55 1 -78 6 -40 7 -42 45 -45 32 -3 38 -1 32 13
-3 9 -6 19 -6 21 0 2 -7 4 -15 4 -19 0 -19 16 0 24 18 6 9 36 -11 36 -8 0 -11
6 -8 15 4 8 15 15 26 15 34 0 13 25 -24 28 -34 3 -36 2 -40 -33z"/>
<path d="M1369 408 c-1 -18 -1 -51 1 -73 3 -59 29 -78 33 -25 1 13 11 26 24
31 46 17 23 99 -27 99 -27 0 -30 -3 -31 -32z m51 -13 c0 -8 -4 -17 -10 -20 -6
-4 -10 5 -10 20 0 15 4 24 10 20 6 -3 10 -12 10 -20z"/>
<path d="M30 345 c0 -5 5 -17 10 -25 5 -8 10 -10 10 -5 0 6 -5 17 -10 25 -5 8
-10 11 -10 5z"/>
<path d="M284 265 c-19 -13 -19 -14 1 -28 16 -12 23 -12 40 -2 28 17 1100 15
1130 -2 16 -9 25 -8 40 4 20 14 20 14 1 29 -23 17 -33 18 -41 4 -8 -13 -1109
-14 -1134 0 -13 6 -24 5 -37 -5z"/>
<path d="M38 165 c-3 -14 -1 -25 3 -25 5 0 9 11 9 25 0 14 -2 25 -4 25 -2 0
-6 -11 -8 -25z"/>
<path d="M785 100 c-8 -13 -1 -24 14 -19 6 3 7 10 2 18 -6 10 -10 10 -16 1z"/>
<path d="M820 96 c0 -9 5 -16 10 -16 6 0 10 4 10 9 0 6 -4 13 -10 16 -5 3 -10
-1 -10 -9z"/>
<path d="M850 95 c0 -8 2 -15 4 -15 2 0 6 7 10 15 3 8 1 15 -4 15 -6 0 -10 -7
-10 -15z"/>
<path d="M911 94 c0 -11 3 -14 6 -6 3 7 2 16 -1 19 -3 4 -6 -2 -5 -13z"/>
<path d="M936 103 c-11 -11 -6 -23 9 -23 8 0 15 4 15 9 0 13 -16 22 -24 14z"/>
<path d="M971 94 c0 -11 3 -14 6 -6 3 7 2 16 -1 19 -3 4 -6 -2 -5 -13z"/>
<path d="M996 95 c-3 -9 0 -15 9 -15 16 0 20 16 6 24 -5 3 -11 -1 -15 -9z"/>
<path d="M35 65 c0 -19 3 -35 8 -35 4 0 7 16 7 35 0 19 -3 35 -7 35 -5 0 -8
-16 -8 -35z"/>
</g>
</svg>
