<?xml version="1.0" standalone="no"?>
<!DOCTYPE svg PUBLIC "-//W3C//DTD SVG 20010904//EN"
 "http://www.w3.org/TR/2001/REC-SVG-20010904/DTD/svg10.dtd">
<svg version="1.0" xmlns="http://www.w3.org/2000/svg"
 width="225.000000pt" height="225.000000pt" viewBox="0 0 225.000000 225.000000"
 preserveAspectRatio="xMidYMid meet">

<g transform="translate(0.000000,225.000000) scale(0.100000,-0.100000)"
fill="#000000" stroke="none">
<path d="M1053 1914 c-59 -67 -71 -85 -56 -83 4 0 32 29 61 65 36 44 60 64 75
64 17 0 51 -35 130 -130 60 -71 113 -130 119 -130 7 0 2 10 -9 23 -10 12 -55
65 -98 117 -94 114 -120 140 -145 140 -10 0 -44 -29 -77 -66z"/>
<path d="M715 1933 c-45 -11 -53 -36 -30 -94 5 -13 -2 -20 -29 -29 -55 -18
-59 -29 -41 -107 8 -37 18 -75 21 -84 3 -12 -4 -20 -26 -27 -22 -8 -30 -17
-30 -35 0 -14 6 -30 14 -36 8 -7 18 -38 22 -69 12 -101 41 -179 77 -206 35
-26 123 -56 171 -57 50 -1 101 -23 101 -44 0 -14 -12 -22 -45 -31 -25 -7 -36
-13 -25 -14 l20 -1 -20 -9 c-28 -12 -55 -13 -36 -1 9 6 10 10 2 16 -18 11 -41
-2 -41 -24 0 -29 17 -35 53 -18 18 8 46 17 63 20 29 6 32 3 38 -25 3 -17 6
-45 6 -64 0 -18 5 -36 10 -39 20 -13 9 -35 -31 -62 -38 -25 -39 -28 -23 -40
10 -7 14 -13 8 -13 -5 0 -2 -4 5 -9 12 -8 10 -12 -11 -22 -22 -9 -34 -9 -65 4
l-38 16 43 0 c23 1 42 6 42 11 0 6 -7 10 -16 10 -30 0 -9 35 36 58 25 12 36
20 25 16 -11 -3 -36 -11 -55 -16 -19 -5 -40 -16 -46 -24 -18 -22 -57 21 -52
57 3 15 0 25 -5 22 -5 -3 -6 -27 -2 -54 6 -39 4 -49 -7 -49 -15 0 -38 40 -38
64 0 23 41 68 57 62 8 -3 11 -2 8 4 -7 12 21 27 87 44 29 8 43 15 31 15 -60 2
-170 -54 -197 -100 -27 -46 -20 -78 27 -123 97 -93 318 -113 474 -41 l54 24
-3 -42 c-3 -40 -1 -42 26 -45 28 -4 29 -2 23 32 l-6 36 47 0 c74 0 103 13 222
97 84 59 109 83 108 98 -2 16 -10 19 -33 18 -88 -8 -125 -3 -200 25 l-80 29
-7 54 c-3 30 -6 81 -7 114 0 57 1 61 32 80 30 19 32 24 35 87 3 61 1 68 -20
82 -25 16 -276 41 -309 31 -15 -5 -19 -1 -19 17 0 58 43 82 170 93 111 9 122
13 118 42 -3 23 -7 25 -68 26 -118 1 -167 -3 -145 -14 14 -6 1 -7 -40 -4 -43
3 -52 2 -30 -4 l30 -9 -31 -1 c-42 -1 -59 15 -78 76 -25 77 -49 103 -97 103
-35 0 -39 3 -39 25 0 37 -20 73 -44 79 -25 7 -112 6 -141 -1z m30 -63 c5 -17
4 -22 -3 -15 -5 6 -13 21 -17 35 -5 17 -4 22 3 15 5 -5 13 -21 17 -35z m25 -5
c0 -5 -5 -3 -10 5 -5 8 -10 20 -10 25 0 6 5 3 10 -5 5 -8 10 -19 10 -25z m64
-215 c5 -20 3 -19 -8 5 -7 17 -16 41 -20 55 -5 20 -3 19 8 -5 7 -16 16 -41 20
-55z m155 40 c0 -10 -3 -8 -9 5 -12 27 -12 43 0 25 5 -8 9 -22 9 -30z m-180
-40 c0 -8 -7 1 -14 20 -18 46 -17 64 0 25 8 -16 14 -37 14 -45z m120 -5 c0
-11 -7 0 -15 25 -17 56 -17 64 1 25 8 -16 14 -39 14 -50z m-169 -22 c0 -8 14
-13 34 -13 21 0 36 -6 40 -15 3 -8 1 -15 -4 -15 -6 0 -10 5 -10 10 0 6 -18 10
-41 10 -22 0 -38 4 -35 9 3 5 -1 28 -9 51 -8 23 -15 45 -14 49 1 10 38 -73 39
-86z m139 47 c0 -10 -3 -8 -9 5 -12 27 -12 43 0 25 5 -8 9 -22 9 -30z m-239 6
c0 -14 -4 -28 -10 -31 -6 -4 -10 7 -10 24 0 17 5 31 10 31 6 0 10 -11 10 -24z
m54 -36 c4 -24 3 -28 -2 -15 -14 31 -24 83 -13 65 5 -8 11 -31 15 -50z m145 0
c0 -9 -4 -8 -9 5 -5 11 -9 27 -9 35 0 9 4 8 9 -5 5 -11 9 -27 9 -35z m120 0
c0 -9 -4 -8 -9 5 -5 11 -9 27 -9 35 0 9 4 8 9 -5 5 -11 9 -27 9 -35z m-20 -5
c0 -5 -4 -3 -9 5 -5 8 -9 22 -9 30 0 16 17 -16 18 -35z m-277 -22 c-2 -7 -8
-13 -12 -13 -17 0 -20 19 -8 46 l13 27 6 -24 c3 -13 4 -30 1 -36z m254 7 c24
0 44 -4 44 -9 0 -14 -23 -19 -42 -9 -12 5 -18 5 -18 -1 0 -10 -59 -46 -65 -39
-1 2 -5 13 -9 24 -5 16 -2 23 14 27 17 4 20 11 15 34 l-5 28 11 -27 c9 -25 16
-28 55 -28z m72 -5 c0 -16 -2 -15 -8 5 -11 34 -11 60 0 35 5 -11 8 -29 8 -40z
m364 48 c-12 -2 -20 -9 -17 -14 3 -5 -1 -6 -10 -3 -8 4 -22 1 -30 -6 -12 -10
-15 -9 -15 4 0 10 -4 14 -10 11 -5 -3 -10 -1 -10 4 0 7 23 10 58 10 31 -1 47
-4 34 -6z m-256 -85 c-9 -12 -16 -38 -16 -58 0 -26 -3 -31 -10 -20 -11 18 -3
59 18 83 21 24 26 21 8 -5z m-151 -8 c2 -4 -7 -5 -20 -2 -14 2 -25 8 -25 12 0
10 38 1 45 -10z m52 -12 c-3 -7 -5 -2 -5 12 0 14 2 19 5 13 2 -7 2 -19 0 -25z
m-20 -10 c-3 -8 -6 -5 -6 6 -1 11 2 17 5 13 3 -3 4 -12 1 -19z m-70 -10 c-3
-8 -6 -5 -6 6 -1 11 2 17 5 13 3 -3 4 -12 1 -19z m-20 -10 c-3 -8 -6 -5 -6 6
-1 11 2 17 5 13 3 -3 4 -12 1 -19z m-130 -40 c-2 -13 -4 -5 -4 17 -1 22 1 32
4 23 2 -10 2 -28 0 -40z m60 30 c-3 -8 -6 -5 -6 6 -1 11 2 17 5 13 3 -3 4 -12
1 -19z m-109 -148 c11 -14 35 -34 56 -46 20 -11 33 -24 29 -27 -3 -4 7 -8 23
-8 16 -1 21 -3 12 -6 -9 -2 -24 -15 -32 -28 -11 -16 -22 -22 -33 -18 -11 4
-14 3 -9 -5 10 -17 1 -15 -44 8 -50 25 -65 49 -87 132 -15 56 -15 68 -3 82 7
10 19 15 26 12 7 -3 15 7 20 22 6 23 9 18 16 -33 4 -33 16 -71 26 -85z m19 98
c-3 -7 -5 -2 -5 12 0 14 2 19 5 13 2 -7 2 -19 0 -25z m697 -14 c5 -14 4 -15
-9 -4 -17 14 -19 20 -6 20 5 0 12 -7 15 -16z m-456 -65 c90 -12 112 -26 111
-67 0 -26 -1 -26 -9 -5 -15 36 -50 51 -155 68 -55 9 -102 19 -105 22 -3 3 13
3 35 0 22 -3 77 -11 123 -18z m144 -39 c-9 -16 -17 -28 -18 -27 -1 1 -4 13 -7
27 -5 22 -3 26 18 28 24 2 24 1 7 -28z m-108 -56 c20 -8 20 -21 1 -40 -15 -15
-16 -15 -19 9 0 6 -14 14 -31 16 l-30 4 30 7 c17 4 31 8 32 9 1 0 8 -2 17 -5z
m323 -10 c-43 -23 -207 -84 -225 -83 -10 0 4 7 31 15 26 8 47 18 47 23 0 4 6
8 13 9 25 1 57 11 99 30 51 24 75 28 35 6z m-362 -17 c6 0 12 -8 12 -18 3 -29
-84 -54 -153 -43 l-44 6 20 29 c12 16 27 26 34 23 8 -3 17 0 21 6 5 9 22 10
54 5 25 -4 51 -7 56 -8z m41 -72 c9 -8 24 -15 35 -15 15 0 20 -6 17 -22 -3
-23 -38 -35 -38 -13 0 7 -15 18 -32 25 -18 7 -27 14 -20 17 6 3 10 9 6 14 -9
15 16 10 32 -6z m-17 -91 c-11 -13 -11 -18 -1 -21 8 -3 12 -27 12 -70 0 -47
-3 -64 -12 -61 -14 5 -28 148 -15 148 5 0 5 5 2 10 -10 16 5 34 18 21 7 -7 6
-15 -4 -27z m110 -84 c15 -87 18 -96 44 -108 15 -7 27 -18 27 -24 0 -7 -5 -6
-15 2 -12 10 -13 8 -10 -10 3 -14 0 -20 -8 -17 -7 2 -12 14 -11 25 0 12 -5 23
-12 26 -7 3 -10 -2 -7 -15 7 -26 -11 -24 -26 4 -12 22 -11 61 2 73 4 4 7 14 7
23 0 11 -3 10 -15 -5 -8 -10 -14 -14 -14 -9 1 6 -3 22 -8 36 -20 46 -19 77 2
97 24 23 24 23 44 -98z m271 69 c0 -19 -9 -31 -34 -44 -19 -11 -33 -22 -30
-27 3 -4 -3 -5 -12 -1 -13 5 -15 3 -9 -7 6 -9 4 -11 -5 -5 -10 6 -7 13 12 30
13 11 33 39 44 62 20 42 34 39 34 -8z m-443 15 c-3 -3 -12 -4 -19 -1 -8 3 -5
6 6 6 11 1 17 -2 13 -5z m90 -131 c-2 -16 -4 -3 -4 27 0 30 2 43 4 28 2 -16 2
-40 0 -55z m475 35 c89 -28 105 -30 142 -21 l41 11 -32 -27 c-18 -15 -33 -32
-33 -38 0 -13 -73 -73 -89 -73 -6 0 -11 5 -11 10 0 20 -40 -15 -41 -35 0 -11
-3 -14 -6 -7 -2 6 -11 12 -19 12 -8 0 -11 -6 -7 -17 4 -10 2 -14 -5 -9 -6 3
-13 2 -17 -4 -8 -13 -55 -13 -55 0 0 6 7 13 15 16 10 4 12 10 6 18 -10 11 -14
174 -5 188 7 11 5 11 116 -24z m-258 -134 c24 -9 1 -33 -24 -27 -21 5 -25 15
-13 26 8 9 17 9 37 1z m91 -30 c15 -4 22 -11 18 -20 -7 -18 -15 -18 -61 1 -29
13 -34 18 -22 25 8 6 21 8 28 5 8 -3 24 -8 37 -11z m-251 -7 l26 -14 -27 -24
c-15 -13 -21 -16 -14 -6 9 12 10 17 2 17 -6 0 -14 -7 -17 -15 -4 -9 -19 -15
-36 -15 -27 0 -29 2 -17 16 7 9 22 20 34 24 17 8 18 9 2 9 -20 1 -13 21 7 21
8 0 25 -6 40 -13z m101 -27 c-3 -5 -13 -10 -21 -10 -8 0 -14 5 -14 10 0 6 9
10 21 10 11 0 17 -4 14 -10z m135 -31 c0 -10 -4 -19 -10 -19 -5 0 -10 12 -10
26 0 14 4 23 10 19 6 -3 10 -15 10 -26z"/>
<path d="M1575 930 c-19 -12 -33 -16 -40 -10 -7 6 -15 7 -18 4 -4 -4 -17 -8
-29 -9 -41 -4 -43 -5 -26 -15 11 -7 26 -7 43 0 17 7 24 7 20 0 -3 -6 -4 -10 0
-10 7 0 85 51 85 56 0 6 -4 5 -35 -16z"/>
<path d="M1063 1876 c-36 -45 -48 -67 -41 -74 7 -7 26 7 61 49 l50 61 21 -26
c12 -14 50 -62 86 -105 45 -56 72 -80 87 -81 19 0 6 20 -78 120 -58 69 -108
120 -118 120 -10 0 -40 -29 -68 -64z"/>
<path d="M1420 1653 c0 -6 95 -124 210 -263 116 -139 210 -258 210 -265 0 -7
-22 -40 -48 -72 -27 -32 -52 -69 -55 -82 -5 -22 -4 -23 34 -17 44 7 48 2 18
-30 l-21 -22 27 -18 c20 -13 23 -19 13 -25 -30 -20 -48 -10 -48 26 0 28 -5 38
-26 47 -28 13 -32 10 -142 -115 -18 -20 -38 -37 -44 -37 -7 0 -1 12 13 27 14
16 32 37 40 47 19 26 -80 -46 -108 -77 -13 -16 -37 -28 -65 -32 -64 -11 -84
-28 -23 -20 60 8 204 55 240 79 19 13 24 22 19 38 -4 15 -3 18 6 13 18 -11 3
-214 -17 -237 -19 -21 -120 -63 -198 -82 -174 -43 -451 -46 -632 -8 -96 21
-202 63 -227 91 -22 24 -27 232 -6 239 13 4 13 3 2 -11 -8 -9 -11 -21 -7 -27
19 -31 170 -83 309 -105 107 -17 396 -21 396 -5 0 7 -32 9 -97 5 -98 -7 -254
5 -351 25 -51 11 -53 14 -194 183 -79 95 -148 179 -155 188 -10 13 0 30 62
105 67 80 89 120 60 112 -18 -5 -165 -186 -165 -203 0 -13 119 -162 268 -337
9 -11 11 -18 4 -18 -18 0 -292 333 -292 355 0 11 41 69 91 128 50 59 89 112
87 117 -3 10 -161 -176 -186 -220 -15 -27 -15 -29 11 -66 14 -22 40 -56 58
-76 31 -38 31 -38 7 -38 -13 0 -40 9 -61 19 -20 10 -39 15 -42 11 -2 -4 9 -27
26 -50 30 -41 31 -44 13 -57 -10 -7 -26 -13 -36 -13 -33 0 -18 -19 25 -31 23
-6 48 -13 55 -15 6 -2 12 -17 12 -33 0 -34 23 -61 51 -61 16 0 19 -7 19 -53 0
-69 15 -88 95 -123 65 -28 65 -29 65 -69 0 -53 19 -78 77 -103 49 -21 184 -52
226 -52 13 0 37 -15 57 -35 42 -44 64 -44 104 -1 27 28 43 35 102 45 98 17
188 48 218 76 20 19 26 34 26 68 0 45 0 45 55 67 83 34 105 59 105 120 0 46 3
51 27 61 33 12 43 26 43 61 0 24 6 28 55 43 56 16 73 35 33 35 -13 0 -30 5
-38 10 -12 8 -13 13 -2 27 34 48 51 77 47 81 -2 3 -20 -3 -39 -12 -34 -16 -66
-21 -66 -11 0 3 22 33 50 66 30 36 50 70 50 84 0 17 -61 99 -201 267 -231 279
-229 276 -229 261z m-880 -702 c0 -3 -10 -11 -22 -16 -17 -7 -24 -20 -26 -47
-3 -38 -11 -43 -46 -29 -17 6 -16 9 8 24 l26 18 -24 32 -25 32 55 -3 c30 -2
54 -7 54 -11z m-16 -45 c-4 -11 5 -16 38 -18 43 -4 43 -4 16 -16 -26 -11 -28
-16 -28 -67 0 -53 -1 -55 -20 -45 -17 9 -20 21 -20 79 0 59 4 81 16 81 2 0 1
-6 -2 -14z m1216 -66 c0 -59 -3 -71 -20 -80 -19 -10 -20 -8 -20 50 0 47 -3 60
-15 60 -8 0 -15 5 -15 10 0 6 11 10 25 10 16 0 25 6 25 16 0 8 5 12 10 9 6 -3
10 -37 10 -75z m-625 -353 c120 -1 197 4 263 16 50 9 94 17 96 17 3 0 7 -10 9
-22 4 -20 4 -19 6 5 0 15 6 27 12 27 6 0 9 -17 7 -42 -3 -40 -6 -45 -53 -70
-143 -76 -472 -82 -644 -11 -55 23 -71 42 -71 83 l0 37 103 -20 c75 -14 146
-20 272 -20z m15 -177 c7 0 22 7 32 17 24 22 32 13 12 -15 -8 -12 -25 -22 -36
-22 -23 0 -58 26 -58 43 0 6 8 3 18 -6 10 -10 25 -17 32 -17z"/>
<path d="M868 443 c7 -3 16 -2 19 1 4 3 -2 6 -13 5 -11 0 -14 -3 -6 -6z"/>
<path d="M1000 438 c0 -8 7 -21 15 -28 19 -16 19 -1 0 24 -12 16 -15 17 -15 4z"/>
<path d="M1060 418 c0 -23 3 -29 9 -19 8 12 4 51 -5 51 -2 0 -4 -15 -4 -32z"/>
<path d="M1228 420 c2 -16 6 -30 8 -30 2 0 4 14 4 30 0 17 -4 30 -8 30 -5 0
-7 -13 -4 -30z"/>
<path d="M1251 434 c0 -11 3 -14 6 -6 3 7 2 16 -1 19 -3 4 -6 -2 -5 -13z"/>
<path d="M1345 440 c-27 -7 -28 -8 -5 -8 14 0 34 3 45 8 25 11 2 11 -40 0z"/>
<path d="M913 433 c9 -2 23 -2 30 0 6 3 -1 5 -18 5 -16 0 -22 -2 -12 -5z"/>
<path d="M1097 427 c-3 -8 -1 -20 4 -28 6 -10 9 -7 9 14 0 29 -5 35 -13 14z"/>
<path d="M1143 424 c-3 -8 -2 -19 3 -24 5 -5 9 1 9 16 0 28 -3 30 -12 8z"/>
<path d="M1180 413 c0 -21 3 -24 9 -14 5 8 7 20 4 28 -8 21 -13 15 -13 -14z"/>
<path d="M1396 1611 c-4 -5 81 -115 189 -245 107 -129 195 -237 195 -241 0 -4
-17 -27 -37 -52 -28 -34 -34 -46 -23 -53 9 -6 26 7 56 43 24 29 44 57 44 62 0
11 -396 488 -409 493 -5 2 -12 -1 -15 -7z"/>
<path d="M640 1156 c0 -20 5 -36 10 -36 6 0 10 13 10 29 0 17 -4 33 -10 36 -6
4 -10 -8 -10 -29z"/>
<path d="M684 1175 c-4 -9 1 -22 12 -31 17 -14 17 -15 2 -10 -10 3 -18 1 -18
-4 0 -6 9 -10 21 -10 17 0 20 5 17 32 -3 35 -24 49 -34 23z"/>
<path d="M1553 1174 c-4 -10 -2 -19 5 -22 7 -2 12 -8 12 -13 0 -6 -4 -7 -10
-4 -5 3 -10 1 -10 -4 0 -6 9 -11 21 -11 17 0 20 5 17 32 -3 35 -24 49 -35 22z"/>
<path d="M1610 1150 c0 -16 5 -30 10 -30 6 0 10 14 10 30 0 17 -4 30 -10 30
-5 0 -10 -13 -10 -30z"/>
<path d="M658 1063 c28 -2 76 -2 105 0 28 2 5 3 -53 3 -58 0 -81 -1 -52 -3z"/>
<path d="M1483 1063 c31 -2 83 -2 115 0 31 2 5 3 -58 3 -63 0 -89 -1 -57 -3z"/>
<path d="M688 1033 c29 -2 74 -2 100 0 26 2 2 3 -53 3 -55 0 -76 -1 -47 -3z"/>
<path d="M1538 1033 c17 -2 47 -2 65 0 17 2 3 4 -33 4 -36 0 -50 -2 -32 -4z"/>
<path d="M688 1003 c17 -2 47 -2 65 0 17 2 3 4 -33 4 -36 0 -50 -2 -32 -4z"/>
<path d="M596 725 c4 -27 8 -52 10 -54 9 -10 3 75 -6 89 -7 10 -8 -1 -4 -35z"/>
<path d="M1646 755 c-3 -9 -5 -35 -5 -58 1 -40 2 -40 9 13 9 57 7 73 -4 45z"/>
<path d="M748 689 c6 -7 12 -30 12 -50 0 -21 -6 -39 -12 -42 -7 -2 4 -8 25
-12 44 -9 64 4 52 32 -4 10 -7 28 -6 40 2 21 -2 23 -64 40 -16 4 -18 3 -7 -8z
m50 -34 c-3 -14 -1 -28 3 -31 14 -8 10 -34 -5 -34 -9 0 -15 15 -18 45 -2 33 0
45 11 45 9 0 12 -8 9 -25z"/>
<path d="M1468 681 c16 -10 12 -43 -5 -49 -8 -2 -13 6 -13 22 0 14 -6 26 -12
26 -9 0 -13 -18 -13 -55 0 -44 3 -55 15 -53 9 2 14 12 12 26 -4 25 15 30 24 7
4 -8 15 -15 25 -15 19 0 19 1 -1 22 -13 15 -17 25 -10 32 19 19 11 46 -12 46
-17 0 -19 -3 -10 -9z"/>
<path d="M899 615 c-18 -39 -22 -55 -12 -55 7 0 12 6 11 13 -2 6 6 12 17 12
13 0 20 -6 19 -17 -1 -11 5 -18 17 -18 18 0 18 1 0 48 -10 26 -20 53 -22 60
-2 7 -16 -12 -30 -43z m25 0 c3 -8 1 -15 -4 -15 -6 0 -10 7 -10 15 0 8 2 15 4
15 2 0 6 -7 10 -15z"/>
<path d="M1346 663 c5 -5 12 -12 16 -18 4 -6 8 -2 8 8 0 9 -7 17 -17 17 -9 0
-12 -3 -7 -7z"/>
<path d="M1295 605 c0 -45 3 -55 17 -55 12 0 16 8 15 28 -2 20 2 27 16 26 9
-1 17 4 17 11 0 9 -8 11 -22 7 -18 -4 -20 -2 -16 16 5 16 2 22 -10 22 -14 0
-17 -10 -17 -55z"/>
<path d="M1030 601 c0 -32 5 -51 13 -54 10 -4 13 2 9 21 l-4 27 25 -30 c28
-34 48 -29 23 6 -11 17 -13 26 -5 36 15 17 4 43 -18 43 -14 0 -15 -2 -4 -9 8
-5 11 -16 8 -25 -10 -25 -27 -19 -27 9 0 14 -4 25 -10 25 -5 0 -10 -22 -10
-49z"/>
<path d="M1165 595 c0 -59 12 -68 56 -45 20 11 27 50 8 50 -8 0 -8 4 1 15 6 8
9 19 5 25 -11 18 -23 11 -18 -10 4 -14 0 -20 -11 -20 -9 0 -16 8 -16 20 0 11
-6 20 -12 20 -9 0 -13 -18 -13 -55z m50 -20 c0 -10 -6 -20 -12 -22 -8 -3 -13
5 -13 22 0 17 5 25 13 23 6 -3 12 -13 12 -23z"/>
<path d="M1360 575 c-7 -9 -8 -15 -2 -15 5 0 12 7 16 15 3 8 4 15 2 15 -2 0
-9 -7 -16 -15z"/>
</g>
</svg>
