<?xml version="1.0" standalone="no"?>
<!DOCTYPE svg PUBLIC "-//W3C//DTD SVG 20010904//EN"
 "http://www.w3.org/TR/2001/REC-SVG-20010904/DTD/svg10.dtd">
<svg version="1.0" xmlns="http://www.w3.org/2000/svg"
 width="225.000000pt" height="225.000000pt" viewBox="0 0 225.000000 225.000000"
 preserveAspectRatio="xMidYMid meet">

<g transform="translate(0.000000,225.000000) scale(0.100000,-0.100000)"
fill="#000000" stroke="none">
<path d="M1119 2013 c-9 -10 -20 -33 -24 -51 -4 -18 -11 -29 -16 -26 -6 3 -8
13 -4 23 5 13 4 13 -6 4 -10 -10 -8 -17 9 -36 30 -32 28 -40 -10 -33 -75 15
-103 18 -88 7 13 -9 12 -11 -3 -11 -10 0 -15 -4 -12 -10 3 -5 -1 -10 -10 -10
-8 0 -21 -11 -27 -25 -6 -14 -15 -25 -20 -25 -5 0 -7 4 -3 9 3 6 -4 15 -15 21
-11 6 -20 9 -21 8 -9 -29 -7 -74 6 -103 12 -29 12 -35 1 -26 -11 9 -12 7 -9
-12 3 -17 -2 -26 -19 -34 -13 -6 -54 -33 -90 -61 l-66 -50 -34 35 -33 35 54
48 c29 27 77 61 107 77 53 28 85 71 42 57 -37 -12 -132 -71 -179 -113 l-47
-41 -43 55 c-56 69 -82 72 -127 13 -18 -23 -32 -46 -32 -51 0 -4 25 -35 56
-67 l55 -58 -34 -69 c-63 -125 -82 -202 -82 -343 0 -147 16 -216 75 -335 22
-44 65 -111 95 -148 64 -78 64 -71 -15 -157 -115 -123 -116 -126 -71 -171 50
-49 70 -41 182 69 89 89 101 97 118 86 10 -7 42 -23 72 -34 59 -24 82 -49 89
-100 6 -38 55 -80 96 -80 17 0 23 -6 26 -27 5 -39 48 -67 92 -59 37 7 55 28
58 69 1 16 7 23 18 20 21 -6 73 15 66 26 -3 5 2 15 12 22 16 13 16 13 2 -5
-13 -17 -13 -19 0 -14 9 3 16 20 18 43 4 49 37 82 122 122 l66 30 29 -40 c47
-62 162 -157 191 -157 32 0 74 45 74 80 0 16 -10 36 -26 51 -15 13 -53 55 -86
93 l-60 68 34 37 c137 145 200 305 201 506 1 128 -22 225 -80 343 l-36 72 52
55 c32 33 51 63 51 77 0 28 -58 88 -85 88 -10 0 -39 -23 -65 -52 l-46 -52 -68
53 c-38 28 -89 63 -115 76 -55 30 -101 63 -119 88 -15 20 -96 24 -136 6 -14
-7 -33 -8 -43 -5 -17 7 -16 9 5 26 23 19 30 50 10 50 -6 0 -23 14 -37 31 -25
30 -27 30 -42 12z m28 -18 c0 -8 -3 -13 -5 -10 -3 3 -11 0 -19 -6 -10 -9 -13
-8 -13 4 0 13 12 24 31 26 3 1 6 -6 6 -14z m18 -35 c-3 -5 -1 -10 5 -10 6 0 8
-5 4 -12 -6 -9 -9 -9 -12 0 -2 7 -9 9 -15 5 -7 -4 -6 1 2 10 15 18 26 23 16 7z
m-25 -91 c0 -5 -4 -8 -9 -4 -5 3 -12 -9 -14 -27 -4 -33 -4 -33 -5 5 -2 27 2
37 13 37 8 0 15 -5 15 -11z m-205 -59 c-3 -5 -12 -10 -18 -10 -7 0 -6 4 3 10
19 12 23 12 15 0z m625 -96 c25 -18 53 -41 62 -51 15 -17 14 -20 -18 -57 l-34
-39 -42 40 c-24 21 -62 50 -86 63 -23 13 -42 28 -42 32 0 5 9 27 20 49 l21 40
37 -22 c20 -12 57 -37 82 -55z m-416 58 c3 -5 -1 -9 -9 -9 -8 0 -12 4 -9 9 3
4 7 8 9 8 2 0 6 -4 9 -8z m-185 -41 c8 -14 7 -20 -4 -25 -11 -4 -15 2 -15 19
0 30 6 32 19 6z m177 3 c-3 -9 -6 -20 -6 -25 0 -5 -4 -9 -10 -9 -11 0 -14 33
-3 43 12 13 25 7 19 -9z m261 -8 c-6 -12 -10 -28 -9 -36 2 -13 1 -13 -7 -1 -6
9 -6 22 -1 32 5 9 7 18 5 21 -3 3 2 5 9 5 12 0 13 -4 3 -21z m-932 -6 c17 -18
17 -20 2 -14 -10 3 -17 1 -17 -5 0 -6 9 -11 20 -11 11 0 35 -17 54 -37 69 -79
100 -117 81 -103 -16 13 -16 10 4 -18 13 -19 31 -36 40 -39 9 -3 37 -26 63
-51 25 -24 50 -42 55 -39 4 3 8 -9 8 -26 -1 -18 4 -40 9 -49 15 -26 0 -33 -30
-13 -19 12 -38 16 -66 12 -33 -4 -37 -3 -27 9 9 11 8 14 -2 14 -8 0 -6 5 5 13
11 8 17 19 15 25 -2 6 -60 71 -129 143 -69 73 -129 138 -133 146 -5 9 -2 24 7
39 20 29 18 29 41 4z m851 -28 c-4 -3 -11 -1 -18 6 -8 8 -8 15 3 28 13 16 14
16 17 -5 2 -13 1 -25 -2 -29z m534 1 c0 -18 -30 -56 -108 -136 -59 -62 -118
-125 -132 -141 l-25 -29 25 13 c24 13 25 12 8 -7 -10 -11 -18 -24 -18 -30 0
-18 -32 -38 -55 -35 -12 2 -28 -4 -35 -12 -7 -9 -19 -16 -26 -16 -17 0 -18 22
-2 38 9 9 9 12 -1 12 -7 0 11 25 40 55 28 30 56 52 60 49 5 -3 6 3 2 12 -5 14
-3 16 11 11 14 -5 17 -3 12 8 -4 10 1 15 15 15 14 0 19 5 16 14 -3 7 36 59 90
120 77 87 97 105 109 95 8 -6 14 -22 14 -36z m-580 -9 c0 -8 -5 -12 -10 -9 -6
4 -8 11 -5 16 9 14 15 11 15 -7z m-327 -8 c3 -8 0 -17 -7 -19 -10 -4 -12 1 -9
14 6 23 9 24 16 5z m187 -61 c5 -3 10 -12 10 -18 0 -7 -4 -6 -10 3 -8 13 -10
12 -10 -2 0 -13 -8 -18 -30 -18 -23 0 -28 3 -23 16 4 12 2 15 -8 12 -8 -3 -13
-11 -11 -17 1 -6 -8 -11 -20 -12 -41 -1 39 -22 110 -28 6 0 12 -5 12 -10 0 -5
-35 -12 -77 -16 -43 -4 -85 -7 -93 -8 -8 -1 -14 4 -12 11 3 18 -26 14 -37 -5
-9 -16 -10 -16 -11 -2 0 21 24 31 57 23 19 -5 24 -4 18 6 -5 8 -21 10 -49 7
l-41 -6 23 19 c26 22 28 28 6 26 -9 0 -18 6 -19 14 -2 13 13 15 101 13 57 -1
108 -4 114 -8z m59 -8 c13 -16 5 -27 -19 -27 -9 0 -16 8 -16 20 0 23 18 26 35
7z m-614 -114 l33 -37 -24 -46 c-13 -24 -24 -51 -24 -57 0 -12 -13 -17 -32
-14 -5 0 -8 -7 -9 -16 0 -15 -2 -15 -8 2 -24 60 -52 -210 -33 -315 14 -74 45
-154 86 -223 19 -31 30 -57 24 -57 -5 0 -7 -8 -4 -17 7 -20 -27 19 -46 52 -10
19 -10 19 8 6 10 -8 6 -2 -10 14 -91 90 -139 362 -93 535 17 63 82 210 93 210
3 0 21 -17 39 -37z m1198 -40 c20 -43 43 -107 52 -143 22 -94 19 -239 -5 -334
-25 -94 -76 -200 -92 -190 -7 4 -8 3 -4 -4 4 -7 0 -22 -8 -34 -11 -15 -16 -18
-16 -8 -1 10 -7 8 -20 -9 -31 -37 -23 -17 19 48 21 33 51 100 67 148 26 78 29
101 28 208 -1 96 -5 132 -22 180 -14 39 -20 48 -17 27 3 -20 1 -31 -5 -27 -6
3 -10 13 -10 21 0 9 -6 14 -12 11 -8 -2 -24 19 -40 52 l-27 55 31 38 c16 21
33 38 37 38 4 0 24 -35 44 -77z m-793 37 c-18 -12 -47 -13 -53 -2 -3 4 11 8
31 9 26 1 32 -1 22 -7z m330 0 c0 -5 -4 -10 -9 -10 -6 0 -13 5 -16 10 -3 6 1
10 9 10 9 0 16 -4 16 -10z m-215 -10 c-16 -4 -43 -8 -60 -8 l-30 0 30 8 c17 4
44 8 60 8 l30 0 -30 -8z m195 -20 c0 -11 -4 -20 -10 -20 -5 0 -10 9 -10 20 0
11 5 20 10 20 6 0 10 -9 10 -20z m-306 -32 c8 -5 7 -8 -1 -8 -8 0 -13 -27 -16
-82 l-3 -83 -1 90 c-1 50 -4 99 -8 110 l-7 20 13 -20 c7 -11 17 -23 23 -27z
m96 22 c-37 -12 -82 -12 -75 0 3 6 27 10 53 9 38 -1 42 -2 22 -9z m-40 -30
c-19 -13 -30 -13 -30 0 0 6 10 10 23 10 18 0 19 -2 7 -10z m216 -109 c-9 -10
-16 -27 -16 -39 0 -21 -4 -22 -96 -22 l-97 0 36 28 c20 15 54 39 76 54 28 19
41 35 43 55 2 21 8 28 25 28 11 0 25 4 30 8 4 5 9 -15 11 -43 2 -37 -2 -57
-12 -69z m51 -24 c-2 -23 -3 -1 -3 48 0 50 1 68 3 42 2 -26 2 -67 0 -90z
m-310 1 c-2 -24 -4 -5 -4 42 0 47 2 66 4 43 2 -24 2 -62 0 -85z m290 90 c-3
-7 -5 -2 -5 12 0 14 2 19 5 13 2 -7 2 -19 0 -25z m0 -100 c-2 -18 -4 -6 -4 27
0 33 2 48 4 33 2 -15 2 -42 0 -60z m48 -48 c129 -10 364 -47 386 -61 27 -16 1
-16 -96 1 -268 48 -653 53 -939 11 -81 -12 -150 -20 -152 -18 -2 2 42 13 99
25 221 46 469 61 702 42z m182 -53 c159 -26 203 -39 202 -56 0 -9 -8 -41 -18
-71 -14 -44 -21 -55 -37 -53 -10 2 -62 9 -114 18 -165 25 -377 38 -525 31
-124 -6 -418 -41 -436 -51 -3 -3 -16 28 -28 67 -11 39 -20 72 -18 73 10 6 167
36 232 45 44 5 94 12 110 14 73 10 544 -3 632 -17z m-57 -162 c140 -20 220
-37 220 -47 0 -10 -5 -10 -55 2 -64 14 -270 38 -390 44 -156 9 -536 -22 -627
-50 -10 -3 -18 -1 -18 4 0 16 176 47 370 66 85 8 395 -4 500 -19z m-466 -37
c3 -13 5 -117 4 -233 l-2 -210 -6 185 c-3 102 -8 178 -12 170 -4 -8 -9 -91
-11 -185 -2 -159 -3 -156 -5 56 -1 124 1 229 5 232 12 12 21 7 27 -15z m246 9
c0 -7 -7 -23 -16 -35 -8 -12 -13 -22 -9 -22 3 0 14 15 25 33 11 17 20 27 20
21 0 -18 -41 -65 -51 -59 -5 4 -9 17 -9 31 0 13 -2 24 -5 24 -3 0 -29 -16 -58
-35 l-51 -35 -29 28 c-26 24 -28 25 -18 5 6 -13 9 -23 7 -23 -3 0 -13 14 -22
31 -8 17 -11 29 -6 25 5 -3 15 1 22 9 17 20 200 22 200 2z m67 -344 c-1 -65
-3 -12 -3 117 0 129 2 182 3 118 2 -65 2 -171 0 -235z m-247 248 c0 -3 -12
-14 -25 -24 l-25 -18 0 47 0 47 25 -23 c14 -13 25 -26 25 -29z m196 -14 c20 8
20 -90 -1 -107 -21 -17 -22 -175 -1 -167 10 4 15 -5 18 -33 3 -37 2 -38 -32
-44 -57 -9 -94 -6 -114 9 -11 8 -14 15 -8 15 14 0 12 21 -3 32 -6 5 -5 8 3 8
14 0 17 56 3 64 -5 3 -29 -12 -54 -34 -25 -22 -48 -40 -51 -40 -3 0 -6 20 -6
44 0 59 30 100 115 158 60 41 70 52 70 78 0 18 8 35 20 44 18 13 20 13 23 -9
2 -16 8 -22 18 -18z m131 8 c0 -8 -4 -15 -9 -15 -10 0 -11 14 -1 23 9 10 10 9
10 -8z m-767 -185 c6 -11 8 -20 6 -20 -3 0 -10 9 -16 20 -6 11 -8 20 -6 20 3
0 10 -9 16 -20z m377 -194 c-3 -8 -1 -17 6 -20 7 -2 3 -5 -8 -5 -27 -1 -49 14
-41 28 11 17 49 14 43 -3z m33 -47 c10 -6 -3 -7 -35 -3 -27 3 -54 11 -60 16
-12 12 73 0 95 -13z m-64 -26 c-3 -17 -26 -26 -26 -10 0 4 0 12 0 17 0 6 6 10
14 10 8 0 13 -8 12 -17z m384 -8 c-9 -11 -22 -14 -44 -10 -21 4 -27 3 -17 -3
9 -7 -4 -10 -43 -11 -34 0 -54 4 -51 9 4 6 1 10 -4 10 -6 0 -11 -4 -11 -9 0
-12 -59 -20 -66 -9 -3 4 -15 8 -27 8 -12 0 -29 5 -37 10 -11 8 6 11 60 11 41
0 103 2 138 5 41 4 62 2 62 -5 0 -17 30 -13 37 4 3 9 8 14 11 11 3 -3 -1 -13
-8 -21z m-775 -5 c3 -6 -1 -7 -10 -4 -11 5 -14 2 -9 -12 6 -15 4 -16 -6 -7 -7
6 -9 16 -6 22 9 14 23 14 31 1z m1131 -10 c0 -11 -3 -20 -7 -20 -10 0 -19 27
-12 34 12 11 19 6 19 -14z m-706 -44 c-1 -30 -26 -61 -36 -44 -8 13 -7 56 2
70 9 14 34 -5 34 -26z m317 -3 c-3 -10 -5 -4 -5 12 0 17 2 24 5 18 2 -7 2 -21
0 -30z m-24 5 c4 -13 0 -29 -8 -38 -8 -9 -12 -19 -9 -23 3 -3 -4 -3 -17 0 -13
4 -20 2 -16 -4 4 -5 -6 -8 -25 -5 -21 3 -29 1 -24 -7 5 -7 0 -11 -13 -11 -11
0 -22 4 -26 9 -3 5 -30 13 -60 16 -56 7 -60 12 -49 53 6 19 13 22 60 22 53 0
54 -1 54 -29 0 -24 3 -28 20 -24 20 5 29 43 9 43 -5 0 -7 5 -4 10 3 6 28 10
54 10 42 0 49 -3 54 -22z m-199 -133 l17 -30 -20 24 c-12 13 -21 28 -21 34 0
12 0 11 24 -28z m106 19 c0 -12 -26 -44 -36 -44 -2 0 -3 6 -1 13 1 7 -8 11
-24 10 -22 -1 -26 2 -22 18 5 16 13 19 44 17 23 -1 39 -7 39 -14z"/>
<path d="M1795 1699 c-11 -17 1 -21 15 -4 8 9 8 15 2 15 -6 0 -14 -5 -17 -11z"/>
<path d="M965 1601 c-7 -12 12 -24 25 -16 11 7 4 25 -10 25 -5 0 -11 -4 -15
-9z"/>
<path d="M1018 1553 c7 -3 16 -2 19 1 4 3 -2 6 -13 5 -11 0 -14 -3 -6 -6z"/>
<path d="M1065 1170 c-9 -15 5 -90 17 -90 6 0 8 18 4 46 -6 51 -11 61 -21 44z"/>
<path d="M897 1163 c-9 -8 3 -85 14 -97 5 -6 9 12 9 41 0 49 -9 70 -23 56z"/>
<path d="M938 1120 c3 -34 8 -50 18 -50 7 0 11 6 8 14 -3 8 -6 29 -7 47 -1 18
-6 34 -12 36 -6 2 -9 -17 -7 -47z"/>
<path d="M980 1120 c0 -33 4 -50 13 -50 8 0 11 15 9 50 -5 65 -22 65 -22 0z"/>
<path d="M1022 1121 c2 -38 6 -47 15 -39 7 6 10 15 6 21 -4 6 -6 24 -5 39 1
15 -2 28 -8 28 -6 0 -9 -20 -8 -49z"/>
<path d="M1100 1160 c0 -5 4 -10 9 -10 6 0 13 5 16 10 3 6 -1 10 -9 10 -9 0
-16 -4 -16 -10z"/>
<path d="M1140 1125 c0 -47 15 -62 22 -22 5 31 -2 67 -13 67 -5 0 -9 -20 -9
-45z"/>
<path d="M1187 1148 c-7 -27 1 -68 14 -68 5 0 9 9 9 20 0 11 -5 20 -11 20 -8
0 -7 5 1 15 9 11 10 19 3 26 -7 7 -12 3 -16 -13z"/>
<path d="M1226 1161 c-3 -5 3 -20 14 -34 11 -14 20 -33 20 -42 0 -9 5 -13 10
-10 15 9 12 45 -5 51 -8 4 -15 15 -15 25 0 20 -15 26 -24 10z"/>
<path d="M1270 1156 c0 -9 5 -16 10 -16 6 0 10 4 10 9 0 6 -4 13 -10 16 -5 3
-10 -1 -10 -9z"/>
<path d="M1304 1125 c-6 -42 -1 -66 11 -53 11 11 17 98 7 98 -6 0 -14 -20 -18
-45z"/>
<path d="M1348 1123 c-5 -54 -4 -58 11 -48 13 8 15 95 2 95 -5 0 -11 -21 -13
-47z"/>
<path d="M831 1118 c1 -35 2 -39 8 -18 7 25 8 24 15 -7 4 -18 12 -33 17 -33
12 0 11 15 -3 61 -16 54 -38 51 -37 -3z"/>
<path d="M1397 1153 c-10 -17 -11 -86 -1 -90 6 -2 11 15 13 39 1 23 4 45 7 50
3 4 1 8 -5 8 -5 0 -12 -3 -14 -7z"/>
<path d="M1431 1118 c-1 -23 -5 -46 -8 -51 -3 -5 0 -8 8 -5 14 5 31 65 24 86
-9 26 -21 10 -24 -30z"/>
<path d="M735 1118 c11 -56 16 -68 27 -68 6 0 8 12 4 31 -3 17 -6 40 -6 50 0
11 -7 19 -16 19 -12 0 -14 -7 -9 -32z"/>
<path d="M778 1118 c2 -18 4 -41 5 -51 1 -9 6 -16 12 -14 13 4 20 47 7 47 -5
0 -8 10 -8 21 1 12 -4 24 -10 26 -6 2 -9 -9 -6 -29z"/>
<path d="M1476 1128 c-13 -63 -13 -78 0 -78 8 0 14 9 14 20 0 13 7 20 20 20
24 0 35 22 25 48 -7 15 -8 15 -13 -3 -7 -34 -22 -42 -22 -12 0 33 -18 36 -24
5z"/>
<path d="M635 1108 c-4 -10 -14 -18 -22 -18 -11 0 -10 -5 4 -24 13 -17 22 -21
30 -14 7 5 18 6 24 2 8 -5 10 -2 6 8 -3 9 0 21 6 27 8 8 5 11 -10 11 -12 0
-23 6 -26 13 -3 8 -7 6 -12 -5z"/>
<path d="M1605 1105 c-24 -12 -30 -59 -7 -50 8 3 21 0 28 -6 11 -9 14 -8 14 4
0 8 5 17 12 19 8 3 5 11 -8 24 -15 15 -24 17 -39 9z"/>
<path d="M1106 1102 c-3 -6 -1 -14 5 -17 14 -9 20 -2 10 14 -6 8 -11 9 -15 3z"/>
<path d="M1220 1091 c0 -5 7 -11 14 -14 10 -4 13 -1 9 9 -6 15 -23 19 -23 5z"/>
<path d="M1172 697 c-7 -8 -8 -18 -4 -22 4 -5 -2 -5 -13 -2 -19 7 -19 6 -2 -7
20 -16 26 -123 5 -110 -7 4 -8 3 -4 -5 5 -7 13 -8 23 -3 11 7 15 27 16 80 1
77 -4 90 -21 69z"/>
<path d="M1810 1565 c-25 -30 10 -61 38 -33 7 7 8 17 1 30 -12 22 -23 23 -39
3z m30 -20 c0 -9 -6 -12 -15 -9 -8 4 -12 10 -9 15 8 14 24 10 24 -6z"/>
<path d="M402 1554 c-8 -16 -6 -21 13 -30 19 -9 25 -9 30 4 3 8 3 17 0 20 -3
3 -5 -1 -5 -9 -1 -8 -7 -3 -14 10 -13 23 -14 24 -24 5z"/>
<path d="M1852 1496 c-20 -10 -21 -14 -8 -31 13 -18 14 -18 21 4 6 18 9 21 16
10 5 -8 9 -9 9 -4 0 25 -15 33 -38 21z"/>
<path d="M370 1492 c0 -14 35 -34 44 -25 10 10 7 33 -5 33 -5 0 -7 -4 -4 -10
9 -14 -8 -13 -23 2 -9 9 -12 9 -12 0z"/>
<path d="M355 1441 c3 -6 1 -11 -4 -11 -23 0 -10 -15 14 -16 31 -2 32 7 4 24
-12 8 -18 9 -14 3z"/>
<path d="M1889 1446 c-1 -3 -2 -10 -3 -15 0 -5 -5 -13 -10 -18 -5 -5 -6 -3 -2
5 4 6 2 12 -3 12 -13 0 -14 -10 -3 -28 6 -9 15 -10 33 -3 13 5 19 10 12 10 -7
1 -10 7 -7 15 3 8 1 17 -5 21 -6 3 -12 4 -12 1z"/>
<path d="M326 1373 c-4 -9 -1 -21 5 -27 9 -8 10 -8 5 2 -9 15 6 16 22 0 9 -9
12 -8 12 5 0 9 -7 17 -16 17 -8 0 -12 5 -9 10 3 6 2 10 -3 10 -6 0 -13 -8 -16
-17z"/>
<path d="M1910 1359 c0 -6 -7 -9 -15 -5 -9 3 -15 0 -15 -8 0 -7 12 -13 29 -13
22 0 27 4 23 19 -5 19 -22 25 -22 7z"/>
<path d="M310 1304 c0 -10 6 -14 15 -10 8 3 15 0 15 -6 0 -9 3 -9 11 -1 15 15
3 33 -22 33 -11 0 -19 -7 -19 -16z"/>
<path d="M1898 1275 c2 -14 8 -22 13 -19 5 3 7 10 4 15 -4 5 3 9 14 9 12 0 21
5 21 10 0 6 -13 10 -29 10 -25 0 -28 -3 -23 -25z"/>
<path d="M1923 1232 c-25 -4 -28 -10 -13 -32 8 -12 10 -12 10 5 1 19 1 19 14
2 9 -11 17 -14 21 -8 10 18 -8 37 -32 33z"/>
<path d="M300 1219 c0 -5 4 -8 9 -4 5 3 12 1 16 -5 3 -5 -3 -10 -14 -10 -30 0
-26 -15 4 -16 20 -2 25 3 25 22 0 17 -6 24 -20 24 -11 0 -20 -5 -20 -11z"/>
<path d="M1912 1155 c2 -11 8 -23 13 -27 6 -5 5 -8 -2 -8 -24 0 -13 -15 12
-16 27 -2 31 6 13 24 -9 9 -9 12 0 12 7 0 12 7 12 15 0 18 -16 20 -23 3 -4
-10 -8 -9 -17 2 -9 13 -10 12 -8 -5z"/>
<path d="M313 1152 c-33 -5 -31 -39 2 -39 14 0 25 3 25 8 0 5 -6 9 -12 9 -9 0
-8 3 2 10 19 11 11 17 -17 12z"/>
<path d="M318 1083 c-25 -6 -22 -30 4 -36 23 -7 42 3 21 10 -7 2 -9 11 -6 19
3 8 4 13 2 13 -2 -1 -12 -3 -21 -6z"/>
<path d="M1906 1072 c-10 -9 -7 -42 4 -42 5 0 7 7 4 15 -5 11 -2 13 10 9 9 -3
13 -10 10 -15 -3 -5 0 -9 5 -9 19 0 12 38 -8 43 -11 3 -22 2 -25 -1z"/>
<path d="M304 1004 c3 -9 6 -19 6 -24 0 -4 9 -6 20 -3 20 5 29 43 9 43 -5 0
-7 -6 -3 -12 6 -10 4 -10 -7 0 -18 17 -32 15 -25 -4z"/>
<path d="M1890 1000 c0 -5 5 -10 10 -10 6 0 10 5 10 10 0 6 -4 10 -10 10 -5 0
-10 -4 -10 -10z"/>
<path d="M1908 986 c-21 -15 -14 -26 16 -26 17 0 18 2 6 10 -10 6 -11 10 -2
10 6 0 12 5 12 10 0 13 -11 12 -32 -4z"/>
<path d="M333 953 c-7 -2 -13 -14 -13 -25 0 -15 4 -18 23 -12 29 9 29 8 21 28
-6 17 -10 18 -31 9z"/>
<path d="M1905 920 c3 -5 8 -10 11 -10 2 0 4 5 4 10 0 6 -5 10 -11 10 -5 0 -7
-4 -4 -10z"/>
<path d="M1865 890 c-4 -6 -3 -16 3 -22 13 -13 23 4 13 21 -7 10 -10 10 -16 1z"/>
<path d="M1893 875 c0 -8 4 -15 9 -15 4 0 8 7 8 15 0 8 -4 15 -8 15 -5 0 -9
-7 -9 -15z"/>
<path d="M365 850 c3 -5 1 -11 -5 -15 -15 -9 -2 -25 21 -25 26 0 22 42 -4 46
-9 1 -15 -2 -12 -6z"/>
<path d="M1824 796 c-9 -24 4 -48 23 -44 12 2 18 12 18 28 0 29 -32 41 -41 16z
m36 -16 c0 -5 -7 -10 -15 -10 -8 0 -15 5 -15 10 0 6 7 10 15 10 8 0 15 -4 15
-10z"/>
<path d="M416 755 c-18 -14 -16 -45 2 -45 18 0 34 29 25 44 -7 12 -11 12 -27
1z"/>
<path d="M1800 730 c13 -8 12 -10 -2 -10 -22 0 -23 -13 -3 -30 13 -11 18 -10
29 6 12 16 12 20 -3 31 -9 7 -20 12 -26 13 -5 0 -3 -5 5 -10z"/>
<path d="M460 701 c0 -6 -7 -11 -15 -11 -16 0 -21 -16 -7 -23 12 -7 45 30 33
38 -6 3 -11 1 -11 -4z"/>
<path d="M1741 666 c-11 -13 -5 -26 11 -26 5 0 6 5 3 10 -8 13 8 13 22 -1 6
-6 13 -7 17 -1 3 5 -5 14 -19 20 -18 8 -26 8 -34 -2z"/>
<path d="M478 650 c-14 -16 -15 -20 -2 -31 10 -8 14 -8 14 0 0 6 7 11 15 11
18 0 19 14 2 28 -10 9 -17 6 -29 -8z"/>
<path d="M1704 619 c-3 -5 0 -9 5 -9 6 0 11 -9 11 -21 0 -11 5 -17 10 -14 6 4
7 11 4 17 -4 6 -2 8 4 4 6 -3 13 -3 15 2 3 4 -6 12 -19 19 -14 6 -26 7 -30 2z"/>
<path d="M518 599 c-15 -16 -15 -18 0 -32 15 -12 19 -12 35 5 16 17 14 22 -6
19 -5 -1 -6 3 -3 8 11 18 -9 18 -26 0z"/>
<path d="M783 403 c15 -2 37 -2 50 0 12 2 0 4 -28 4 -27 0 -38 -2 -22 -4z"/>
<path d="M1428 403 c6 -2 18 -2 25 0 6 3 1 5 -13 5 -14 0 -19 -2 -12 -5z"/>
<path d="M1478 403 c7 -3 16 -2 19 1 4 3 -2 6 -13 5 -11 0 -14 -3 -6 -6z"/>
<path d="M1455 380 c-3 -5 1 -10 10 -10 9 0 13 5 10 10 -3 6 -8 10 -10 10 -2
0 -7 -4 -10 -10z"/>
<path d="M1491 374 c0 -11 3 -14 6 -6 3 7 2 16 -1 19 -3 4 -6 -2 -5 -13z"/>
<path d="M788 343 c12 -2 30 -2 40 0 9 3 -1 5 -23 4 -22 0 -30 -2 -17 -4z"/>
<path d="M1433 343 c9 -2 23 -2 30 0 6 3 -1 5 -18 5 -16 0 -22 -2 -12 -5z"/>
</g>
</svg>
