<?xml version="1.0" standalone="no"?>
<!DOCTYPE svg PUBLIC "-//W3C//DTD SVG 20010904//EN"
 "http://www.w3.org/TR/2001/REC-SVG-20010904/DTD/svg10.dtd">
<svg version="1.0" xmlns="http://www.w3.org/2000/svg"
 width="512.000000pt" height="512.000000pt" viewBox="0 0 512.000000 512.000000"
 preserveAspectRatio="xMidYMid meet">

<g transform="translate(0.000000,512.000000) scale(0.100000,-0.100000)"
fill="#000000" stroke="none">
<path d="M2920 3979 c-50 -20 -106 -73 -661 -628 -482 -482 -611 -616 -630
-656 -34 -71 -34 -199 0 -270 19 -40 147 -174 620 -647 671 -672 646 -651 787
-651 231 0 386 239 290 448 -24 53 -82 115 -489 522 l-461 463 471 472 c446
449 472 476 493 533 28 78 25 188 -8 255 -28 59 -92 124 -151 152 -66 33 -186
36 -261 7z"/>
</g>
</svg>
